<?xml version="1.0" standalone="no"?>
<!DOCTYPE svg PUBLIC "-//W3C//DTD SVG 20010904//EN"
 "http://www.w3.org/TR/2001/REC-SVG-20010904/DTD/svg10.dtd">
<svg version="1.0" xmlns="http://www.w3.org/2000/svg"
 width="1024.000000pt" height="1024.000000pt" viewBox="0 0 1024.000000 1024.000000"
 preserveAspectRatio="xMidYMid meet">

<g transform="translate(0.000000,1024.000000) scale(0.100000,-0.100000)"
fill="#000000" stroke="none">
<path d="M2750 6793 c45 -130 78 -280 87 -403 l6 -89 51 46 c109 97 261 183
326 183 11 0 20 4 20 10 0 14 -157 148 -241 207 -76 52 -227 136 -266 147 -20
6 -19 2 17 -101z"/>
<path d="M3147 6406 c-63 -26 -99 -51 -194 -133 -97 -84 -100 -91 -123 -260
-11 -81 -23 -163 -27 -182 -6 -34 -4 -33 62 38 127 135 294 241 424 271 96 22
226 -10 290 -70 l24 -23 -7 39 c-12 66 -62 157 -126 227 -106 115 -201 143
-323 93z"/>
<path d="M3313 6020 c-130 -26 -249 -98 -383 -230 -116 -115 -187 -211 -270
-365 -29 -55 -80 -142 -112 -193 -32 -51 -62 -100 -65 -110 -9 -22 67 38 251
201 178 158 248 210 355 266 198 103 370 124 515 62 50 -22 120 -81 148 -126
l19 -30 -6 45 c-22 169 -51 269 -107 368 -22 40 -41 58 -76 76 -83 42 -176 54
-269 36z"/>
<path d="M4822 5498 c66 -194 186 -549 267 -788 l148 -435 209 -3 209 -2 162
467 c89 258 212 611 273 786 60 175 110 320 110 322 0 3 -91 5 -203 5 l-203 0
-169 -565 c-93 -311 -172 -562 -175 -557 -4 4 -77 246 -163 539 -86 292 -161
543 -167 557 l-10 26 -204 0 -204 0 120 -352z"/>
<path d="M6340 5060 l0 -790 190 0 190 0 0 790 0 790 -190 0 -190 0 0 -790z"/>
<path d="M7328 5318 c-3 -528 -4 -534 -26 -590 -43 -107 -109 -138 -292 -138
l-100 0 0 -166 0 -166 183 5 c200 6 248 15 346 67 83 44 154 119 196 204 62
125 65 164 65 772 l0 544 -184 0 -185 0 -3 -532z"/>
<path d="M7950 5061 l0 -791 190 0 190 0 0 265 0 265 303 0 c334 0 392 7 504
59 76 36 169 122 207 190 37 68 66 190 66 275 -1 208 -86 370 -237 449 -135
71 -130 70 -705 74 l-518 4 0 -790z m1000 419 c24 -14 55 -41 68 -60 21 -30
23 -44 20 -106 -3 -58 -8 -77 -30 -106 -53 -70 -69 -73 -390 -76 l-288 -3 0
191 0 191 288 -3 c285 -3 287 -3 332 -28z"/>
<path d="M3290 5527 c-127 -39 -244 -107 -370 -215 -36 -31 -180 -169 -320
-307 -250 -245 -351 -336 -518 -465 -45 -35 -81 -65 -79 -67 2 -2 75 26 163
60 182 73 343 151 605 295 292 160 458 219 649 229 173 9 311 -32 406 -119
l47 -43 -5 145 c-5 130 -9 155 -39 245 -29 89 -39 106 -85 152 -29 28 -79 64
-111 79 -50 24 -72 28 -163 31 -87 2 -118 -1 -180 -20z"/>
<path d="M3708 4878 c13 -35 27 -91 30 -126 l5 -63 34 48 c36 50 77 123 71
128 -9 8 -149 75 -157 75 -5 0 3 -28 17 -62z"/>
<path d="M4180 4669 c-829 -71 -1269 -144 -1740 -289 -373 -115 -759 -305
-1075 -530 -186 -133 -185 -136 5 -16 134 85 372 205 525 266 562 224 1223
262 1642 94 l62 -25 93 64 c158 109 414 257 693 401 l109 56 -49 -1 c-28 -1
-147 -10 -265 -20z"/>
<path d="M4494 4581 c-451 -223 -833 -474 -1014 -667 l-65 -70 -70 12 c-377
63 -908 79 -1255 39 -363 -43 -715 -151 -938 -287 -82 -51 -122 -84 -64 -54
96 49 351 124 532 155 180 32 305 41 542 41 260 0 457 -16 942 -76 198 -24
369 -44 381 -44 15 0 25 10 35 37 40 113 179 289 342 433 183 163 528 402 771
535 58 32 77 45 64 45 -2 0 -93 -44 -203 -99z"/>
</g>
</svg>
